<svg xmlns="http://www.w3.org/2000/svg" width="600" height="600" viewBox="0 0 600 600" role="img" aria-label="Grid texture">
  <!-- Subtle medical grid texture -->
  <rect width="600" height="600" fill="none" />
  <g stroke="#E6EEF8" stroke-width="1">
    <path d="M0 60 H600" />
    <path d="M0 120 H600" />
    <path d="M0 180 H600" />
    <path d="M0 240 H600" />
    <path d="M0 300 H600" />
    <path d="M0 360 H600" />
    <path d="M0 420 H600" />
    <path d="M0 480 H600" />
    <path d="M0 540 H600" />
    <path d="M60 0 V600" />
    <path d="M120 0 V600" />
    <path d="M180 0 V600" />
    <path d="M240 0 V600" />
    <path d="M300 0 V600" />
    <path d="M360 0 V600" />
    <path d="M420 0 V600" />
    <path d="M480 0 V600" />
    <path d="M540 0 V600" />
  </g>
  <g stroke="#D9E4F2" stroke-width="1" opacity="0.7">
    <path d="M0 300 H600" />
    <path d="M300 0 V600" />
  </g>
</svg>
